<?xml version="1.0" encoding="UTF-8" standalone="no"?>
<!DOCTYPE svg PUBLIC "-//W3C//DTD SVG 1.1//EN"
 "http://www.w3.org/Graphics/SVG/1.1/DTD/svg11.dtd">
<!-- Generated by graphviz version 2.43.0 (0)
 -->
<!-- Title: italy Pages: 1 -->
<svg width="661pt" height="320pt"
 viewBox="0.00 0.00 660.56 320.00" xmlns="http://www.w3.org/2000/svg" xmlns:xlink="http://www.w3.org/1999/xlink">
<g id="graph0" class="graph" transform="scale(1 1) rotate(0) translate(4 316)">
<title>italy</title>
<polygon fill="white" stroke="transparent" points="-4,4 -4,-316 656.56,-316 656.56,4 -4,4"/>
<g id="clust1" class="cluster">
<title>cluster_gcp</title>
<polygon fill="none" stroke="lightblue" points="0,-88 0,-312 456,-312 456,-88 0,-88"/>
<text text-anchor="middle" x="228" y="-296.8" font-family="Helvetica,Arial,sans-serif" font-size="14.00">GCP</text>
</g>
<g id="clust2" class="cluster">
<title>cluster_landing</title>
<polygon fill="lightgreen" stroke="lightgreen" points="8,-95.5 8,-170.5 294,-170.5 294,-95.5 8,-95.5"/>
<text text-anchor="middle" x="151" y="-155.3" font-family="Helvetica,Arial,sans-serif" font-size="14.00">Landing</text>
</g>
<g id="clust3" class="cluster">
<title>cluster_nonprod</title>
<polygon fill="lightblue" stroke="lightblue" points="206.24,-206.14 206.24,-281.14 276.24,-281.14 276.24,-206.14 206.24,-206.14"/>
<text text-anchor="middle" x="241.24" y="-265.94" font-family="Helvetica,Arial,sans-serif" font-size="14.00">nonprod</text>
</g>
<g id="clust4" class="cluster">
<title>cluster_prod</title>
<polygon fill="red" stroke="red" points="302.5,-177.5 302.5,-252.5 447.5,-252.5 447.5,-177.5 302.5,-177.5"/>
<text text-anchor="middle" x="375" y="-237.3" font-family="Helvetica,Arial,sans-serif" font-size="14.00">prod</text>
</g>
<!-- it0 -->
<g id="node1" class="node">
<title>it0</title>
<polygon fill="none" stroke="black" points="286,-139.5 232,-139.5 232,-103.5 286,-103.5 286,-139.5"/>
<text text-anchor="middle" x="259" y="-117.8" font-family="Helvetica,Arial,sans-serif" font-size="14.00">it0</text>
</g>
<!-- it1 -->
<g id="node2" class="node">
<title>it1</title>
<polygon fill="none" stroke="black" points="214,-139.5 160,-139.5 160,-103.5 214,-103.5 214,-139.5"/>
<text text-anchor="middle" x="187" y="-117.8" font-family="Helvetica,Arial,sans-serif" font-size="14.00">it1</text>
</g>
<!-- it0&#45;&#45;it1 -->
<g id="edge6" class="edge">
<title>it0&#45;&#45;it1</title>
<path fill="none" stroke="black" d="M231.78,-121C226.05,-121 219.99,-121 214.26,-121"/>
<text text-anchor="middle" x="223.02" y="-109.8" font-family="Helvetica,Arial,sans-serif" font-size="14.00">VPN</text>
</g>
<!-- it4 -->
<g id="node3" class="node">
<title>it4</title>
<polygon fill="none" stroke="black" points="70,-139.5 16,-139.5 16,-103.5 70,-103.5 70,-139.5"/>
<text text-anchor="middle" x="43" y="-117.8" font-family="Helvetica,Arial,sans-serif" font-size="14.00">it4</text>
</g>
<!-- it1&#45;&#45;it4 -->
<g id="edge8" class="edge">
<title>it1&#45;&#45;it4</title>
<path fill="none" stroke="black" d="M159.91,-121C134.33,-121 96.16,-121 70.45,-121"/>
<text text-anchor="middle" x="101.18" y="-124.8" font-family="Helvetica,Arial,sans-serif" font-size="14.00">VPN</text>
</g>
<!-- it2 -->
<g id="node5" class="node">
<title>it2</title>
<polygon fill="none" stroke="black" points="439.5,-221.5 385.5,-221.5 385.5,-185.5 439.5,-185.5 439.5,-221.5"/>
<text text-anchor="middle" x="412.5" y="-199.8" font-family="Helvetica,Arial,sans-serif" font-size="14.00">it2</text>
</g>
<!-- it1&#45;&#45;it2 -->
<g id="edge7" class="edge">
<title>it1&#45;&#45;it2</title>
<path fill="none" stroke="black" d="M178,-139.85C178,-150.57 178,-162 178,-162 178,-162 412.5,-162 412.5,-162 412.5,-162 412.5,-174.06 412.5,-185.18"/>
<text text-anchor="middle" x="281.77" y="-165.8" font-family="Helvetica,Arial,sans-serif" font-size="14.00">VPN</text>
</g>
<!-- eu12&#45;p -->
<g id="node6" class="node">
<title>eu12&#45;p</title>
<polygon fill="none" stroke="black" points="370,-221.5 311,-221.5 311,-185.5 370,-185.5 370,-221.5"/>
<text text-anchor="middle" x="340.5" y="-199.8" font-family="Helvetica,Arial,sans-serif" font-size="14.00">eu12&#45;p</text>
</g>
<!-- it1&#45;&#45;eu12&#45;p -->
<g id="edge9" class="edge">
<title>it1&#45;&#45;eu12&#45;p</title>
<path fill="none" stroke="black" d="M196,-139.67C196,-161.43 196,-195 196,-195 196,-195 268.63,-195 310.91,-195"/>
<text text-anchor="middle" x="211.79" y="-198.8" font-family="Helvetica,Arial,sans-serif" font-size="14.00">VPN</text>
</g>
<!-- it4&#45;&#45;eu12&#45;p -->
<g id="edge11" class="edge">
<title>it4&#45;&#45;eu12&#45;p</title>
<path fill="none" stroke="black" d="M52,-139.81C52,-164.11 52,-204 52,-204 52,-204 237.45,-204 310.98,-204"/>
<text text-anchor="middle" x="135.4" y="-207.8" font-family="Helvetica,Arial,sans-serif" font-size="14.00">VPN</text>
</g>
<!-- it3 -->
<g id="node4" class="node">
<title>it3</title>
<polygon fill="none" stroke="black" points="268.24,-250.14 214.24,-250.14 214.24,-214.14 268.24,-214.14 268.24,-250.14"/>
<text text-anchor="middle" x="241.24" y="-228.44" font-family="Helvetica,Arial,sans-serif" font-size="14.00">it3</text>
</g>
<!-- it3&#45;&#45;it4 -->
<g id="edge10" class="edge">
<title>it3&#45;&#45;it4</title>
<path fill="none" stroke="black" d="M214.15,-232C157.97,-232 34,-232 34,-232 34,-232 34,-171.13 34,-139.75"/>
<text text-anchor="middle" x="63.95" y="-235.8" font-family="Helvetica,Arial,sans-serif" font-size="14.00">VPN</text>
</g>
<!-- aachen -->
<g id="node7" class="node">
<title>aachen</title>
<polygon fill="none" stroke="black" points="652,-36 590,-36 590,0 652,0 652,-36"/>
<text text-anchor="middle" x="621" y="-14.3" font-family="Helvetica,Arial,sans-serif" font-size="14.00">Aachen</text>
</g>
<!-- mv -->
<g id="node8" class="node">
<title>mv</title>
<polygon fill="none" stroke="black" points="582,-80 464,-80 464,-44 582,-44 582,-80"/>
<text text-anchor="start" x="472" y="-65.8" font-family="Helvetica,Arial,sans-serif" font-size="14.00">Mogliano Veneto</text>
<text text-anchor="start" x="477.5" y="-51.8" font-family="Helvetica,Arial,sans-serif" font-size="14.00"> &#160;&#160;&#160;&#160;&#160;&#160;&#160;</text>
<text text-anchor="start" x="508.5" y="-51.8" font-family="Helvetica,Arial,sans-serif" font-size="10.00">IT on premise</text>
</g>
<!-- aachen&#45;&#45;mv -->
<g id="edge1" class="edge">
<title>aachen&#45;&#45;mv</title>
<path fill="none" stroke="black" d="M621,-36.15C621,-48.27 621,-62 621,-62 621,-62 602.91,-62 582.27,-62"/>
<text text-anchor="middle" x="633.56" y="-65.8" font-family="Helvetica,Arial,sans-serif" font-size="14.00">MPLS</text>
</g>
<!-- mv&#45;&#45;it0 -->
<g id="edge2" class="edge">
<title>mv&#45;&#45;it0</title>
<path fill="none" stroke="black" d="M463.75,-65C385.92,-65 259,-65 259,-65 259,-65 259,-86.8 259,-103.31"/>
<text text-anchor="middle" x="328.22" y="-68.8" font-family="Helvetica,Arial,sans-serif" font-size="14.00">VPN</text>
</g>
<!-- mv&#45;&#45;it1 -->
<g id="edge3" class="edge">
<title>mv&#45;&#45;it1</title>
<path fill="none" stroke="black" d="M463.7,-58C367.24,-58 187,-58 187,-58 187,-58 187,-84.7 187,-103.47"/>
<text text-anchor="middle" x="288.62" y="-61.8" font-family="Helvetica,Arial,sans-serif" font-size="14.00">VPN</text>
</g>
<!-- mv&#45;&#45;it4 -->
<g id="edge4" class="edge">
<title>mv&#45;&#45;it4</title>
<path fill="none" stroke="black" d="M463.66,-51C335.24,-51 43,-51 43,-51 43,-51 43,-82.46 43,-103.34"/>
<text text-anchor="middle" x="213.16" y="-54.8" font-family="Helvetica,Arial,sans-serif" font-size="14.00">VPN</text>
</g>
<!-- mv&#45;&#45;eu12&#45;p -->
<g id="edge5" class="edge">
<title>mv&#45;&#45;eu12&#45;p</title>
<path fill="none" stroke="black" d="M464,-72C410.68,-72 340.5,-72 340.5,-72 340.5,-72 340.5,-149.48 340.5,-185.49"/>
<text text-anchor="middle" x="359.5" y="-75.8" font-family="Helvetica,Arial,sans-serif" font-size="14.00">VPN</text>
</g>
</g>
</svg>
